HIERARCHY
ROOT Hips
{
  OFFSET 0 89.5177 0.535
  CHANNELS 6 Xposition Yposition Zposition Zrotation Xrotation Yrotation
  JOINT Spine
  {
    OFFSET 12.0259 -0.162855 1.69034e-005
    CHANNELS 3 Zrotation Xrotation Yrotation
    JOINT Spine1
    {
      OFFSET 15.3169 -0.0121922 0
      CHANNELS 3 Zrotation Xrotation Yrotation
      JOINT Spine2
      {
        OFFSET 15.3176 -0.0121908 0
        CHANNELS 3 Zrotation Xrotation Yrotation
        JOINT Neck
        {
          OFFSET 19.9142 1.56338 0
          CHANNELS 3 Zrotation Xrotation Yrotation
          JOINT Head
          {
            OFFSET 6.92651 0 0
            CHANNELS 3 Zrotation Xrotation Yrotation
            End Site
            {
              OFFSET 20.7666 0 0
            }
          }
          JOINT LeftShoulder
          {
            OFFSET -6.20654 0.708824 7.28219
            CHANNELS 3 Zrotation Xrotation Yrotation
            JOINT LeftArm
            {
              OFFSET 14.108 0 -1.52588e-005
              CHANNELS 3 Zrotation Xrotation Yrotation
              JOINT LeftForeArm
              {
                OFFSET 28.5802 0 0
                CHANNELS 3 Zrotation Xrotation Yrotation
                JOINT LeftHand
                {
                  OFFSET 27.092 0 0
                  CHANNELS 3 Zrotation Xrotation Yrotation
                  End Site
                  {
                    OFFSET 9.55928 -0.186424 0.145352
                  }
                }
              }
            }
          }
          JOINT RightShoulder
          {
            OFFSET -6.20654 0.708866 -7.28218
            CHANNELS 3 Zrotation Xrotation Yrotation
            JOINT RightArm
            {
              OFFSET 14.108 0 1.52588e-005
              CHANNELS 3 Zrotation Xrotation Yrotation
              JOINT RightForeArm
              {
                OFFSET 28.5802 0 0
                CHANNELS 3 Zrotation Xrotation Yrotation
                JOINT RightHand
                {
                  OFFSET 27.092 0 0
                  CHANNELS 3 Zrotation Xrotation Yrotation
                  End Site
                  {
                    OFFSET 9.55929 -0.186417 -0.145354
                  }
                }
              }
            }
          }
        }
      }
    }
  }
  JOINT LeftUpLeg
  {
    OFFSET 0.005 -0.535 8.837
    CHANNELS 3 Zrotation Xrotation Yrotation
    JOINT LeftLeg
    {
      OFFSET 39.9035 0 0
      CHANNELS 3 Zrotation Xrotation Yrotation
      JOINT LeftFoot
      {
        OFFSET 39.6689 0 0
        CHANNELS 3 Zrotation Xrotation Yrotation
        JOINT LeftToe
        {
          OFFSET 10.1624 13.6296 0
          CHANNELS 3 Zrotation Xrotation Yrotation
          End Site
          {
            OFFSET 8.38147 0 0
          }
        }
      }
    }
  }
  JOINT RightUpLeg
  {
    OFFSET 0.005 -0.535 -8.837
    CHANNELS 3 Zrotation Xrotation Yrotation
    JOINT RightLeg
    {
      OFFSET 39.9035 0 0
      CHANNELS 3 Zrotation Xrotation Yrotation
      JOINT RightFoot
      {
        OFFSET 39.6689 0 0
        CHANNELS 3 Zrotation Xrotation Yrotation
        JOINT RightToe
        {
          OFFSET 10.1624 13.6296 0
          CHANNELS 3 Zrotation Xrotation Yrotation
          End Site
          {
            OFFSET 8.38147 0 0
          }
        }
      }
    }
  }
}
MOTION
Frames:	12
Frame Time:	0.0333333
-14.2478 79.6085 -49.0091 178.101 -78.6738 89.3853 1.91817 0.245514 -2.88099 3.8463 0.394664 -5.76849 3.8463 0.394664 -5.7685 -8.31384e-012 -9.0191e-006 -5.27751e-005 38.0848 -43.8902 32.5663 -172.044 -26.1401 -72.4 -16.7739 14.1352 57.4297 -39.7326 7.95139e-016 -5.59082e-016 -28.5297 -62.6538 -32.831 -175.67 14.7756 73.4642 -20.3006 -1.2358 -60.9689 -27.4206 -3.18055e-015 -5.96354e-015 -73.0888 67.1231 76.9645 -34.506 7.67153 -174.462 -27.4689 1.59028e-015 -1.59028e-015 -15.2195 -13.6634 161.389 90 1.59028e-015 -6.36111e-015 -10.4945 -10.6914 172.145 -41.9808 -1.59028e-015 -7.95139e-016 -3.6158 19.933 -150.508 90 -1.27222e-014 -9.54166e-015 
-14.4271 80.4555 -50.7498 -161.479 -78.8463 110.317 1.79207 0.220756 -2.97665 3.59322 0.348536 -5.95863 3.59322 0.348536 -5.95864 -8.3043e-012 -9.0191e-006 -5.27751e-005 38.3604 -44.4041 33.7277 -172.134 -26.3333 -72.7016 -14.874 11.6286 54.5669 -41.7454 -9.93923e-016 -7.45443e-017 -32.9609 -63.3 -37.6078 -175.458 15.04 72.9793 -23.3916 -2.3591 -60.9699 -28.2047 -3.18055e-015 3.57812e-015 -72.0153 68.2031 75.7327 -31.4426 10.2515 -173.76 -26.464 0 -1.88845e-015 -15.2336 -14.6846 159.822 90 -3.97569e-015 -3.18055e-015 -11.8655 -11.2509 171.748 -38.8016 1.59028e-015 -1.59028e-015 -4.12465 20.8062 -148.953 90 1.59028e-015 3.18055e-015 
-14.3527 81.4725 -52.1201 -147.348 -77.9046 124.278 1.65544 -0.0323195 -2.84018 3.30727 -0.146126 -5.6781 3.30727 -0.146126 -5.67811 -8.3043e-012 -9.0191e-006 -5.27751e-005 37.3317 -45.1534 34.4766 -172.33 -26.0163 -72.9317 -12.5703 9.80733 51.5723 -43.9526 -1.59028e-015 1.39149e-015 -35.5645 -64.109 -40.4532 -175.419 15.1281 72.9325 -25.2371 -3.03202 -61.5855 -28.92 -3.18055e-015 2.38542e-015 -70.9078 69.5971 74.4537 -27.8261 11.8942 -173.27 -22.7919 -7.95139e-016 6.95746e-016 -16.6052 -15.8761 157.969 90 0 3.18055e-015 -13.2249 -14.294 172.121 -34.6395 -3.18056e-015 -4.77083e-015 -6.16426 21.7082 -147.328 90 1.59028e-015 3.18055e-015 
-14.0696 82.543 -53.2769 -136.327 -76.853 134.838 1.59114 -0.342087 -2.60475 3.1652 -0.755517 -5.19902 3.1652 -0.755517 -5.19903 -8.30748e-012 -9.0191e-006 -5.27751e-005 36.3758 -46.0343 35.1204 -172.746 -25.7605 -73.6757 -11.8732 8.50787 49.0008 -45.0485 1.59028e-015 2.78299e-015 -36.5953 -64.8876 -41.6004 -175.334 15.3079 72.8229 -26.6578 -3.59732 -61.9844 -29.2712 -2.38542e-015 7.95139e-016 -70.0795 70.4527 73.5133 -24.1291 12.6333 -172.824 -19.049 7.95139e-016 1.2424e-015 -18.9083 -17.3084 155.695 90 -1.59028e-015 -0 -13.8575 -19.0631 172.632 -31.0697 -3.18056e-015 -1.59028e-015 -10.0263 23.2208 -144.518 90 -2.78299e-015 -3.18055e-015 
-13.5952 83.5009 -54.3542 -124.635 -75.1883 145.969 1.56167 -0.520081 -2.35371 3.10089 -1.10319 -4.69254 3.10089 -1.10319 -4.69255 -8.31384e-012 -9.0191e-006 -5.27751e-005 36.3534 -46.4473 35.8968 -173.364 -25.5269 -74.8913 -11.5512 7.70257 47.0993 -45.5319 -6.36111e-015 -1.59028e-015 -35.9779 -65.3574 -40.9524 -175.181 15.4565 72.4454 -27.081 -4.16686 -61.9286 -29.5245 -1.98785e-015 -5.96354e-016 -69.9326 70.8668 73.3304 -20.4346 13.7451 -172.039 -16.0402 7.95139e-016 -2.98177e-016 -21.1437 -18.6638 153.475 90 1.59028e-015 -6.36111e-015 -13.5104 -22.9939 173.281 -29.0163 -9.54167e-015 -4.77083e-015 -14.1723 24.3867 -142.297 90 1.98785e-015 -3.18055e-015 
-12.9434 84.1954 -55.2915 -115.425 -72.3853 154.664 1.43852 -0.655847 -2.10466 2.8523 -1.3634 -4.19248 2.8523 -1.3634 -4.19249 -8.3043e-012 -9.0191e-006 -5.27751e-005 36.2824 -46.218 36.3133 -173.849 -25.4622 -75.927 -11.0791 7.65166 45.3439 -46.3795 3.18055e-015 1.59028e-015 -36.1558 -65.5811 -41.1519 -174.946 15.7433 71.9486 -27.3916 -4.58822 -61.4567 -29.3473 1.59028e-015 7.95139e-016 -69.637 71.0415 73.0044 -16.6986 15.6205 -171.188 -12.4559 -1.98785e-016 -1.49089e-016 -23.079 -19.8033 151.524 90 -5.56597e-015 -3.18055e-015 -13.0407 -25.7552 173.765 -28.19 3.18056e-015 -0 -16.9668 24.2961 -142.581 90 7.95139e-016 -1.59028e-015 
-12.2737 84.5526 -55.8975 -109.635 -68.3082 160.372 1.19246 -0.717123 -1.9147 2.36059 -1.47306 -3.81438 2.36059 -1.47306 -3.81439 -8.30907e-012 -9.0191e-006 -5.27751e-005 35.9575 -45.5374 36.4584 -174.224 -25.5145 -76.7847 -10.6458 8.18534 44.01 -47.405 -9.54166e-015 1.59028e-015 -37.2868 -65.7192 -42.376 -174.847 15.7928 71.6683 -26.617 -4.36135 -61.0959 -28.7562 0 -3.97569e-015 -69.3024 71.01 72.65 -13.3046 18.1692 -170.932 -8.47296 1.98785e-016 1.40392e-015 -24.7243 -21.3734 148.698 90 3.97569e-015 -6.36111e-015 -13.3762 -25.4183 173.832 -28.57 6.36111e-015 3.18056e-015 -18.0989 23.3255 -144.588 90 -1.59028e-015 -3.18055e-015 
-11.5033 84.6391 -56.3099 -106.289 -64.5523 163.559 0.974921 -0.877724 -1.63768 1.92471 -1.78236 -3.26062 1.92471 -1.78236 -3.26063 -8.30112e-012 -9.0191e-006 -5.27751e-005 35.7275 -44.8404 36.959 -174.374 -25.737 -77.2182 -10.6977 8.62937 43.156 -48.1296 -6.36111e-015 -9.54166e-015 -37.262 -65.8537 -42.3528 -174.674 15.9983 71.3117 -25.5764 -3.97128 -60.2528 -28.2449 -1.59028e-015 -4.77083e-015 -69.0792 70.8932 72.419 -12.2015 20.1923 -170.151 -8.29657 3.97569e-016 1.73937e-016 -24.3418 -22.7951 145.957 90 3.97569e-015 -6.36111e-015 -13.6707 -24.9817 173.457 -29.1654 0 1.59028e-015 -17.2085 20.3844 -150.011 90 3.97569e-016 1.59028e-015 
-10.6152 84.5504 -56.4515 -104.81 -61.3418 164.956 0.780524 -1.08425 -1.32943 1.5361 -2.18576 -2.64452 1.5361 -2.18576 -2.64453 -8.3043e-012 -9.0191e-006 -5.27751e-005 35.9182 -44.3439 38.2186 -174.647 -25.7042 -77.8086 -11.4267 8.4994 43.5 -47.9154 -6.36111e-015 -0 -37.0476 -65.9217 -42.1233 -174.521 16.0766 70.8938 -23.5347 -3.41716 -59.4457 -27.9886 -9.54166e-015 -9.54166e-015 -69.3515 70.7206 72.72 -11.741 22.1263 -169.248 -8.13283 1.59028e-015 -1.2921e-015 -24.1024 -23.6509 144.169 90 1.59028e-015 -0 -14.0302 -24.1892 173.06 -28.9334 6.36111e-015 3.18056e-015 -14.5508 16.1902 -156.896 90 0 -1.59028e-015 
-9.68716 84.3522 -56.3656 -104.231 -58.5169 165.965 0.602108 -1.28848 -1.10717 1.17966 -2.58782 -2.2014 1.17966 -2.58782 -2.20141 -8.30748e-012 -9.0191e-006 -5.27751e-005 36.3665 -43.8207 39.9104 -174.931 -25.6678 -78.4264 -13.1946 8.13879 44.8239 -47.2889 6.36111e-015 3.18055e-015 -36.4841 -65.2041 -41.4921 -174.285 16.2929 70.3677 -21.1536 -2.50374 -58.7254 -27.257 -6.36111e-015 -5.76476e-015 -70.1747 70.0659 73.6394 -11.5434 23.82 -168.717 -8.05412 0 3.18055e-015 -24.2597 -24.2548 142.836 90 0 -0 -15.8837 -24.3998 171.792 -29.7458 3.18056e-015 -0 -10.8897 13.208 -161.399 90 7.95139e-016 -0 
-8.65587 84.1695 -56.1823 -103.463 -56.037 167.402 0.567161 -1.53896 -0.937103 1.10967 -3.08644 -1.85976 1.10967 -3.08644 -1.85977 -8.3043e-012 -9.0191e-006 -5.27751e-005 36.3422 -42.9752 41.131 -175.141 -25.394 -78.7871 -15.102 7.41485 46.8326 -47.2127 1.59028e-014 -3.18055e-015 -35.7624 -64.9473 -40.7039 -174.09 16.3686 69.8321 -19.3669 -1.61211 -58.0502 -26.2769 -9.54166e-015 -2.78299e-015 -70.1976 69.5333 73.695 -11.0235 25.2043 -168.495 -8.00031 -2.38542e-015 -2.68359e-015 -24.8356 -24.9133 141.367 90 1.59028e-015 -0 -17.6852 -25.4643 170.757 -29.4268 -6.36111e-015 1.59028e-015 -10.4032 14.9864 -158.744 90 -1.98785e-016 -0 
-7.48154 83.9998 -55.8336 -102.874 -53.5994 168.681 0.583443 -1.78761 -0.765671 1.14377 -3.5823 -1.51403 1.14377 -3.5823 -1.51404 -8.30589e-012 -9.0191e-006 -5.27751e-005 36.134 -42.1456 41.8455 -175.286 -25.1819 -79.0319 -17.4787 6.67871 49.36 -47.6595 -3.18055e-015 -0 -35.7125 -64.7753 -40.6429 -173.961 16.514 69.5862 -18.4333 -1.10817 -57.6823 -25.2984 -6.36111e-015 -2.98177e-016 -70.2299 69.0583 73.7558 -10.5675 26.5343 -168.175 -7.91228 -3.18055e-015 -8.94531e-016 -25.7185 -25.5522 139.902 90 -1.59028e-015 -3.18055e-015 -20.2352 -28.666 169.627 -28.9003 -3.18056e-015 -3.18056e-015 -9.51775 17.9017 -154.208 90 1.59028e-015 -7.95139e-016 
